<?xml version="1.0" encoding="utf-8"?>
<!-- Generator: Adobe Illustrator 22.1.0, SVG Export Plug-In . SVG Version: 6.00 Build 0)  -->
<svg version="1.1" id="Layer_1" xmlns="http://www.w3.org/2000/svg" xmlns:xlink="http://www.w3.org/1999/xlink" x="0px" y="0px"
	 viewBox="0 0 1514.7 300" style="enable-background:new 0 0 1514.7 300;" xml:space="preserve">
<style type="text/css">
	.st0{fill:#E495B5;}
	.st1{fill:url(#SVGID_1_);}
	.st2{fill:none;stroke:#FFFFFF;stroke-width:2;stroke-linecap:round;stroke-miterlimit:10;}
	.st3{opacity:0.55;fill:#FFFFFF;}
	.st4{fill:#286FDC;}
	.st5{fill:#FFFFFF;}
	.st6{fill:url(#SVGID_2_);}
	.st7{opacity:0.5;}
	.st8{fill:#E7E9EC;}
	.st9{opacity:0.4;fill:#F5F5F7;}
	.st10{fill:#F5F5F7;}
	.st11{opacity:0.7;fill:#F5F5F7;}
	.st12{fill:none;}
	.st13{fill:#3FA9F5;}
	.st14{fill:#F9D2D2;}
	.st15{fill:#114FAA;}
	.st16{fill:#E75F6D;}
	.st17{fill:#F4AECE;}
	.st18{fill:#FFC200;}
	.st19{fill:#FF839B;}
	.st20{fill:#1C6FE8;}
	.st21{fill:#457EFB;}
	.st22{fill:#715FF2;}
	.st23{fill:#4F46F9;}
	.st24{fill:url(#SVGID_3_);}
	.st25{fill:url(#SVGID_4_);}
	.st26{fill:url(#SVGID_5_);}
	.st27{fill:#B7C9EA;}
	.st28{fill:#DCE0F4;}
	.st29{fill:url(#SVGID_6_);}
	.st30{fill:url(#SVGID_7_);}
	.st31{fill:url(#SVGID_8_);}
	.st32{fill:url(#SVGID_9_);}
	.st33{fill:url(#SVGID_10_);}
	.st34{fill:url(#SVGID_11_);}
	.st35{fill:url(#SVGID_12_);}
	.st36{fill:url(#SVGID_13_);}
	.st37{fill:#F28EA8;}
	.st38{fill:#F4B0C5;}
	.st39{fill:#F9F5E4;}
	.st40{fill:#163299;}
	.st41{fill:url(#SVGID_14_);}
	.st42{fill:url(#SVGID_15_);}
	.st43{fill:url(#SVGID_16_);}
	.st44{fill:url(#SVGID_17_);}
	.st45{fill:#031A54;}
	.st46{fill:url(#SVGID_18_);}
	.st47{fill:url(#SVGID_19_);}
	.st48{fill:url(#SVGID_20_);}
	.st49{fill:none;stroke:#FFFFFF;stroke-miterlimit:10;}
	.st50{fill:#5C9DE5;}
	.st51{fill:#8AC2FF;}
	.st52{fill:#CFE3FF;}
	.st53{fill:url(#SVGID_21_);}
	.st54{fill:#A4BAFF;}
	.st55{fill:none;stroke:url(#SVGID_22_);stroke-width:0.5;stroke-miterlimit:10;}
	.st56{fill:none;stroke:url(#SVGID_23_);stroke-width:0.5;stroke-miterlimit:10;}
	.st57{fill:none;stroke:url(#SVGID_24_);stroke-width:0.5;stroke-miterlimit:10;}
	.st58{fill:none;stroke:#FFFFFF;stroke-width:0.5;stroke-miterlimit:10;}
	.st59{fill:none;stroke:#FFFFFF;stroke-linejoin:round;stroke-miterlimit:10;}
	.st60{fill:none;stroke:url(#SVGID_25_);stroke-width:0.5;stroke-miterlimit:10;}
	.st61{fill:none;stroke:url(#SVGID_26_);stroke-width:0.5;stroke-miterlimit:10;}
	.st62{fill:none;stroke:#E06387;stroke-miterlimit:10;}
	.st63{fill:none;stroke:#144284;stroke-width:0.75;stroke-linecap:round;stroke-miterlimit:10;}
	.st64{fill:none;stroke:url(#SVGID_27_);stroke-width:0.5;stroke-miterlimit:10;}
	.st65{fill:none;stroke:url(#SVGID_28_);stroke-width:0.5;stroke-miterlimit:10;}
	.st66{fill:none;stroke:url(#SVGID_29_);stroke-width:0.5;stroke-miterlimit:10;}
	.st67{fill:url(#SVGID_30_);}
	.st68{opacity:0.55;fill:#F0F7FC;}
	.st69{fill:none;stroke:#FFFFFF;stroke-linecap:round;stroke-miterlimit:10;}
	.st70{fill:none;stroke:url(#SVGID_31_);stroke-width:0.5;stroke-miterlimit:10;}
	.st71{clip-path:url(#SVGID_33_);fill:#F93245;}
	.st72{clip-path:url(#SVGID_35_);fill:#E75F6D;}
	.st73{clip-path:url(#SVGID_37_);fill:#FC86B1;}
	.st74{clip-path:url(#SVGID_39_);fill:#F1C8D6;}
	.st75{clip-path:url(#SVGID_41_);fill:#FFE210;}
	.st76{clip-path:url(#SVGID_43_);fill:#FFC200;}
	.st77{clip-path:url(#SVGID_45_);fill:#FF931E;}
	.st78{clip-path:url(#SVGID_47_);fill:#4DC882;}
	.st79{clip-path:url(#SVGID_49_);fill:#BACF66;}
	.st80{clip-path:url(#SVGID_51_);fill:#2DC1F6;}
	.st81{clip-path:url(#SVGID_53_);fill:#457EFB;}
	.st82{clip-path:url(#SVGID_55_);fill:#286FDC;}
	.st83{clip-path:url(#SVGID_57_);fill:#050593;}
	.st84{clip-path:url(#SVGID_59_);fill:#001452;}
	.st85{clip-path:url(#SVGID_61_);fill:#715FF2;}
	.st86{clip-path:url(#SVGID_63_);fill:#BE55FA;}
	.st87{fill:url(#SVGID_64_);}
	.st88{fill:url(#SVGID_65_);}
	.st89{fill:url(#SVGID_66_);}
	.st90{fill:url(#SVGID_67_);}
	.st91{fill:url(#SVGID_68_);}
	.st92{fill:url(#SVGID_69_);}
	.st93{fill:url(#SVGID_70_);}
	.st94{fill:url(#SVGID_71_);}
	.st95{fill:url(#SVGID_72_);}
	.st96{fill:url(#SVGID_73_);}
	.st97{fill:url(#SVGID_74_);}
	.st98{fill:url(#SVGID_75_);}
	.st99{fill:url(#SVGID_76_);}
	.st100{fill:url(#SVGID_77_);}
	.st101{fill:url(#SVGID_78_);}
	.st102{fill:url(#SVGID_79_);}
	.st103{fill:url(#SVGID_80_);}
	.st104{fill:none;stroke:url(#SVGID_81_);stroke-miterlimit:10;}
	.st105{fill:none;stroke:url(#SVGID_82_);stroke-miterlimit:10;}
	.st106{fill:none;stroke:url(#SVGID_83_);stroke-miterlimit:10;}
	.st107{fill:url(#SVGID_84_);}
	.st108{fill:url(#SVGID_85_);}
	.st109{fill:url(#SVGID_86_);}
	.st110{fill:url(#SVGID_87_);}
	.st111{fill:#4C94FC;}
	.st112{fill:#D9EFFC;}
	.st113{fill:none;stroke:url(#SVGID_88_);stroke-width:0.5;stroke-miterlimit:10;}
	.st114{fill:none;stroke:url(#SVGID_89_);stroke-width:0.5;stroke-miterlimit:10;}
	.st115{fill:none;stroke:url(#SVGID_90_);stroke-width:0.5;stroke-miterlimit:10;}
	.st116{fill:url(#SVGID_91_);}
	.st117{fill:none;stroke:url(#SVGID_92_);stroke-width:0.5;stroke-miterlimit:10;}
	.st118{fill:none;stroke:url(#SVGID_93_);stroke-width:0.5;stroke-miterlimit:10;}
	.st119{fill:none;stroke:url(#SVGID_94_);stroke-width:0.5;stroke-miterlimit:10;}
	.st120{fill:none;stroke:url(#SVGID_95_);stroke-width:0.5;stroke-miterlimit:10;}
	.st121{fill:none;stroke:url(#SVGID_96_);stroke-width:0.5;stroke-miterlimit:10;}
	.st122{fill:url(#SVGID_97_);}
	.st123{fill:none;stroke:url(#SVGID_98_);stroke-width:0.5;stroke-miterlimit:10;}
	.st124{fill:none;stroke:url(#SVGID_99_);stroke-width:0.5;stroke-miterlimit:10;}
	.st125{fill:none;stroke:url(#SVGID_100_);stroke-width:0.5;stroke-miterlimit:10;}
	.st126{fill:url(#SVGID_101_);}
	.st127{fill:url(#SVGID_102_);}
	.st128{fill:url(#SVGID_103_);}
	.st129{fill:url(#SVGID_104_);}
	.st130{fill:url(#SVGID_105_);}
	.st131{fill:url(#SVGID_106_);}
	.st132{fill:url(#SVGID_107_);}
	.st133{fill:url(#SVGID_108_);}
	.st134{fill:url(#SVGID_109_);}
	.st135{fill:url(#SVGID_110_);}
	.st136{fill:none;stroke:url(#SVGID_111_);stroke-miterlimit:10;}
	.st137{fill:none;stroke:url(#SVGID_112_);stroke-miterlimit:10;}
	.st138{fill:none;stroke:url(#SVGID_113_);stroke-miterlimit:10;}
	.st139{fill:url(#SVGID_114_);}
	.st140{fill:url(#SVGID_115_);}
	.st141{fill:url(#SVGID_116_);}
	.st142{fill:none;stroke:url(#SVGID_117_);stroke-width:0.5;stroke-miterlimit:10;}
	.st143{fill:none;stroke:url(#SVGID_118_);stroke-width:0.5;stroke-miterlimit:10;}
	.st144{fill:none;stroke:url(#SVGID_119_);stroke-width:0.5;stroke-miterlimit:10;}
	.st145{fill:none;stroke:#FFFFFF;stroke-width:0.5;stroke-linejoin:round;stroke-miterlimit:10;}
	.st146{fill:url(#SVGID_120_);}
	.st147{fill:none;stroke:url(#SVGID_121_);stroke-width:0.5;stroke-miterlimit:10;}
	.st148{fill:none;stroke:url(#SVGID_122_);stroke-width:0.5;stroke-miterlimit:10;}
	.st149{fill:none;stroke:#144284;stroke-width:0.5;stroke-linecap:round;stroke-miterlimit:10;}
	.st150{fill:none;stroke:url(#SVGID_123_);stroke-width:0.5;stroke-miterlimit:10;}
	.st151{fill:none;stroke:url(#SVGID_124_);stroke-width:0.5;stroke-miterlimit:10;}
	.st152{fill:none;stroke:url(#SVGID_125_);stroke-width:0.5;stroke-miterlimit:10;}
	.st153{fill:url(#SVGID_126_);}
	.st154{fill:none;stroke:#FFFFFF;stroke-width:0.5;stroke-linecap:round;stroke-miterlimit:10;}
	.st155{fill:none;stroke:url(#SVGID_127_);stroke-width:0.5;stroke-miterlimit:10;}
	.st156{fill:none;stroke:url(#SVGID_128_);stroke-width:0.5;stroke-miterlimit:10;}
	.st157{fill:none;stroke:#E06387;stroke-width:0.5;stroke-miterlimit:10;}
	.st158{fill:none;stroke:#2E3192;stroke-width:1.1;stroke-linejoin:round;stroke-miterlimit:10;}
	.st159{fill:#2E3192;}
	.st160{fill:#666666;}
	.st161{fill:#DEDFE0;}
	.st162{fill:#ECEDED;}
	.st163{fill:#F9E1EB;}
	.st164{fill:#003397;}
	.st165{fill:url(#SVGID_129_);}
	.st166{fill:none;stroke:#FFFFFF;stroke-width:2;stroke-miterlimit:10;}
	.st167{fill:#0173DE;}
	.st168{fill:#FDB81C;}
	.st169{fill:#71D6B7;}
	.st170{fill:#0000FF;}
	.st171{enable-background:new    ;}
	.st172{fill:none;stroke:#0000FF;stroke-linecap:round;stroke-miterlimit:10;}
	.st173{fill:url(#SVGID_130_);}
	.st174{fill:#F9F9F9;}
	.st175{fill:none;stroke:#FDB81C;stroke-width:1.5;stroke-linecap:round;stroke-miterlimit:10;}
	.st176{fill:url(#SVGID_131_);}
	.st177{fill:url(#SVGID_132_);}
	.st178{fill:none;stroke:#FFFFFF;stroke-width:1.5;stroke-linecap:round;stroke-miterlimit:10;}
	.st179{fill:#F4F5F9;}
	.st180{fill:#EDA9C8;}
	.st181{fill:#E5A1C3;}
	.st182{fill:none;stroke:#0000FF;stroke-width:2;stroke-linecap:round;stroke-miterlimit:10;}
	.st183{fill:url(#SVGID_133_);}
	.st184{fill:url(#SVGID_134_);}
	.st185{fill:url(#SVGID_135_);}
	.st186{fill:url(#SVGID_136_);}
	.st187{fill:url(#SVGID_137_);}
	.st188{fill:url(#SVGID_138_);}
	.st189{fill:url(#SVGID_139_);}
	.st190{fill:url(#SVGID_140_);}
	.st191{fill:url(#SVGID_141_);}
	.st192{fill:url(#SVGID_142_);}
	.st193{fill:url(#SVGID_143_);}
	.st194{fill:url(#SVGID_144_);}
	.st195{fill:url(#SVGID_145_);}
	.st196{fill:url(#SVGID_146_);}
	.st197{fill:url(#SVGID_147_);}
	.st198{fill:url(#SVGID_148_);}
	.st199{fill:url(#SVGID_149_);}
	.st200{fill:url(#SVGID_150_);}
	.st201{fill:url(#SVGID_151_);}
	.st202{fill:url(#SVGID_152_);}
	.st203{fill:url(#SVGID_153_);}
	.st204{fill:url(#SVGID_154_);}
	.st205{fill:url(#SVGID_155_);}
	.st206{fill:#79A1F2;}
	.st207{fill:#A5B9EF;}
	.st208{fill:url(#SVGID_156_);}
	.st209{fill:url(#SVGID_157_);}
	.st210{fill:url(#SVGID_158_);}
	.st211{fill:url(#SVGID_159_);}
	.st212{fill:url(#SVGID_160_);}
	.st213{fill:url(#SVGID_161_);}
	.st214{fill:url(#SVGID_162_);}
	.st215{fill:url(#SVGID_163_);}
	.st216{fill:url(#SVGID_164_);}
	.st217{fill:url(#SVGID_165_);}
	.st218{fill:url(#SVGID_166_);}
	.st219{fill:url(#SVGID_167_);}
	.st220{fill:url(#SVGID_168_);}
	.st221{fill:url(#SVGID_169_);}
	.st222{fill:url(#SVGID_170_);}
	.st223{fill:url(#SVGID_171_);}
	.st224{fill:url(#SVGID_172_);}
	.st225{fill:url(#SVGID_173_);}
	.st226{fill:url(#SVGID_174_);}
	.st227{fill:url(#SVGID_175_);}
	.st228{fill:url(#SVGID_176_);}
	.st229{fill:#837AF4;}
	.st230{fill:none;stroke:#BFCBEF;stroke-linecap:round;stroke-miterlimit:10;}
	.st231{fill:#4238C6;}
	.st232{fill:url(#SVGID_177_);}
	.st233{fill:url(#SVGID_178_);}
	.st234{fill:#050593;}
	.st235{fill:url(#SVGID_179_);}
	.st236{fill:url(#SVGID_180_);}
	.st237{fill:url(#SVGID_181_);}
	.st238{fill:url(#SVGID_182_);}
	.st239{fill:url(#SVGID_183_);}
	.st240{fill:url(#SVGID_184_);}
	.st241{fill:url(#SVGID_185_);}
	.st242{fill:url(#SVGID_186_);}
	.st243{fill:url(#SVGID_187_);}
	.st244{fill:url(#SVGID_188_);}
	.st245{fill:none;stroke:url(#SVGID_189_);stroke-miterlimit:10;}
	.st246{fill:none;stroke:url(#SVGID_190_);stroke-miterlimit:10;}
	.st247{fill:none;stroke:url(#SVGID_191_);stroke-miterlimit:10;}
	.st248{fill:url(#SVGID_192_);}
	.st249{fill:url(#SVGID_193_);}
	.st250{fill:url(#SVGID_194_);}
	.st251{fill:none;stroke:url(#SVGID_195_);stroke-width:0.5;stroke-miterlimit:10;}
	.st252{fill:none;stroke:url(#SVGID_196_);stroke-width:0.5;stroke-miterlimit:10;}
	.st253{fill:none;stroke:url(#SVGID_197_);stroke-width:0.5;stroke-miterlimit:10;}
	.st254{fill:url(#SVGID_198_);}
	.st255{fill:none;stroke:url(#SVGID_199_);stroke-width:0.5;stroke-miterlimit:10;}
	.st256{fill:none;stroke:url(#SVGID_200_);stroke-width:0.5;stroke-miterlimit:10;}
	.st257{fill:none;stroke:url(#SVGID_201_);stroke-width:0.5;stroke-miterlimit:10;}
	.st258{fill:none;stroke:url(#SVGID_202_);stroke-width:0.5;stroke-miterlimit:10;}
	.st259{fill:none;stroke:url(#SVGID_203_);stroke-width:0.5;stroke-miterlimit:10;}
	.st260{fill:url(#SVGID_204_);}
	.st261{fill:none;stroke:url(#SVGID_205_);stroke-width:0.5;stroke-miterlimit:10;}
	.st262{fill:none;stroke:url(#SVGID_206_);stroke-width:0.5;stroke-miterlimit:10;}
	.st263{fill:#7968D7;}
	.st264{fill:url(#SVGID_207_);}
	.st265{fill:url(#SVGID_208_);}
	.st266{fill:url(#SVGID_209_);}
	.st267{fill:url(#SVGID_210_);}
	.st268{fill:url(#SVGID_211_);}
	.st269{fill:url(#SVGID_212_);}
	.st270{fill:url(#SVGID_213_);}
	.st271{fill:url(#SVGID_214_);}
	.st272{fill:url(#SVGID_215_);}
	.st273{fill:url(#SVGID_216_);}
	.st274{fill:url(#SVGID_217_);}
	.st275{fill:url(#SVGID_218_);}
	.st276{fill:url(#SVGID_219_);}
	.st277{fill:url(#SVGID_220_);}
	.st278{fill:url(#SVGID_221_);}
	.st279{fill:url(#SVGID_222_);}
	.st280{fill:url(#SVGID_223_);}
	.st281{fill:url(#SVGID_224_);}
	.st282{fill:url(#SVGID_225_);}
	.st283{fill:url(#SVGID_226_);}
	.st284{fill-rule:evenodd;clip-rule:evenodd;fill:#F5F5F7;}
	.st285{fill-rule:evenodd;clip-rule:evenodd;fill:#3FA9F5;}
	.st286{fill:#A04E2E;}
	.st287{fill:#BA643E;}
	.st288{fill:none;stroke:#663C1C;stroke-linecap:round;stroke-miterlimit:10;}
	.st289{fill:#F7C1DC;}
	.st290{fill:#3F4BAA;}
	.st291{fill:#EDC0C0;}
	.st292{fill:none;stroke:#808080;stroke-linecap:round;stroke-miterlimit:10;}
	.st293{fill:url(#SVGID_227_);}
	.st294{opacity:0.4;fill:none;stroke:#FFFFFF;stroke-miterlimit:10;}
	.st295{opacity:0.2;fill:#FFFFFF;}
	.st296{opacity:0.7;}
	.st297{fill:#E59C72;}
	.st298{fill:#FFE210;}
	.st299{fill:#CC826E;}
	.st300{fill:#FF7BAC;}
	.st301{fill:none;stroke:#8C6239;stroke-linecap:round;stroke-miterlimit:10;}
	.st302{fill:#022347;}
	.st303{fill:#CC6484;}
	.st304{fill:#F2F2F2;}
	.st305{fill:#F9BD46;}
	.st306{opacity:0.6;fill:#F5F5F7;}
	.st307{fill:#57CF8D;}
	.st308{fill:url(#SVGID_228_);}
	.st309{fill:#4D4DF7;}
	.st310{fill:url(#SVGID_229_);}
	.st311{fill:url(#SVGID_230_);}
	.st312{fill:url(#SVGID_231_);}
	.st313{fill:url(#SVGID_232_);}
	.st314{fill:url(#SVGID_233_);}
	.st315{fill:url(#SVGID_234_);}
	.st316{fill:url(#SVGID_235_);}
	.st317{fill:url(#SVGID_236_);}
	.st318{fill:url(#SVGID_237_);}
	.st319{fill:url(#SVGID_238_);}
	.st320{fill:url(#SVGID_239_);}
	.st321{fill:url(#SVGID_240_);}
	.st322{fill:url(#SVGID_241_);}
	.st323{fill:url(#SVGID_242_);}
	.st324{fill:url(#SVGID_243_);}
	.st325{fill:url(#SVGID_244_);}
	.st326{fill:none;stroke:url(#SVGID_245_);stroke-miterlimit:10;}
	.st327{fill:none;stroke:url(#SVGID_246_);stroke-miterlimit:10;}
	.st328{fill:none;stroke:url(#SVGID_247_);stroke-miterlimit:10;}
	.st329{fill:url(#SVGID_248_);}
	.st330{fill:url(#SVGID_249_);}
	.st331{fill:url(#SVGID_250_);}
	.st332{fill:url(#SVGID_251_);}
	.st333{fill:none;stroke:url(#SVGID_252_);stroke-width:0.5;stroke-miterlimit:10;}
	.st334{fill:none;stroke:url(#SVGID_253_);stroke-width:0.5;stroke-miterlimit:10;}
	.st335{fill:none;stroke:url(#SVGID_254_);stroke-width:0.5;stroke-miterlimit:10;}
	.st336{fill:url(#SVGID_255_);}
	.st337{fill:none;stroke:url(#SVGID_256_);stroke-width:0.5;stroke-miterlimit:10;}
	.st338{fill:none;stroke:url(#SVGID_257_);stroke-width:0.5;stroke-miterlimit:10;}
	.st339{fill:none;stroke:url(#SVGID_258_);stroke-width:0.5;stroke-miterlimit:10;}
	.st340{fill:none;stroke:url(#SVGID_259_);stroke-width:0.5;stroke-miterlimit:10;}
	.st341{fill:none;stroke:url(#SVGID_260_);stroke-width:0.5;stroke-miterlimit:10;}
	.st342{fill:url(#SVGID_261_);}
	.st343{fill:none;stroke:url(#SVGID_262_);stroke-width:0.5;stroke-miterlimit:10;}
	.st344{fill:none;stroke:url(#SVGID_263_);stroke-width:0.5;stroke-miterlimit:10;}
	.st345{fill:none;stroke:url(#SVGID_264_);stroke-width:0.5;stroke-miterlimit:10;}
	.st346{fill:#E6E6E6;}
	.st347{fill:#0B103A;}
	.st348{fill:#F0ACBB;}
	.st349{fill:#F794AE;}
	.st350{fill:#FCDBE4;}
	.st351{fill:#FFEFC2;}
	.st352{fill:#1D2559;}
	.st353{fill:url(#SVGID_265_);}
	.st354{fill:#DBDBDB;}
	.st355{fill:#039A53;}
	.st356{fill:#1CB568;}
	.st357{opacity:0.3;fill:#FFFFFF;}
	.st358{opacity:0.32;fill:#FFFFFF;}
	.st359{fill:#F4BDBD;}
	.st360{fill:#2DC1F6;}
	.st361{fill:#063542;}
	.st362{fill:#491203;}
	.st363{fill:#AC2B3F;}
	.st364{fill:#F9C7D4;}
	.st365{fill:#EDEBE2;}
	.st366{fill:#F9C7D4;stroke:#9E7B86;stroke-linecap:round;stroke-miterlimit:10;}
	.st367{fill:none;stroke:#BA809E;stroke-linecap:round;stroke-miterlimit:10;}
	.st368{fill:none;stroke:#563850;stroke-linecap:round;stroke-miterlimit:10;}
	.st369{fill:#C63054;}
	.st370{fill:#92190C;}
	.st371{fill:#0D576B;}
	.st372{fill:#CCCCCC;}
	.st373{fill:#F93245;}
	.st374{fill:none;stroke:#FFFF00;stroke-width:2;stroke-linecap:round;stroke-miterlimit:10;}
	.st375{fill:#991D35;}
	.st376{fill:url(#SVGID_266_);}
	.st377{fill:#1E48BC;}
	.st378{fill:#E59CAF;}
	.st379{fill:#592712;}
	.st380{fill:#F0ACBB;stroke:#7C503E;stroke-linecap:round;stroke-miterlimit:10;}
	.st381{fill:#FC8BA9;}
	.st382{fill:#BFE0EF;}
	.st383{fill:#92CCE0;}
	.st384{fill:#44A1B7;}
	.st385{fill:#4C42CE;}
	.st386{fill:#1E2968;}
	.st387{fill:none;stroke:#4DC882;stroke-width:2;stroke-miterlimit:10;}
	.st388{fill:none;stroke:#FFC200;stroke-width:2;stroke-linecap:round;stroke-miterlimit:10;}
	.st389{fill:#C16842;}
	.st390{fill:#333333;}
	.st391{fill:#CA7649;}
	.st392{fill:#4DC882;}
	.st393{fill:#020619;}
	.st394{fill:#E5E5E5;}
	.st395{fill:#563850;}
	.st396{fill:#AD5049;}
	.st397{fill:none;stroke:#CCCCCC;stroke-width:2;stroke-linecap:round;stroke-miterlimit:10;}
	.st398{fill:#EAB0B0;}
	.st399{fill:#603813;}
	.st400{fill:#D3909D;}
	.st401{fill:#F5F5F5;stroke:#917786;stroke-linecap:round;stroke-miterlimit:10;}
	.st402{fill:#053519;stroke:#C42DFC;stroke-width:2;stroke-miterlimit:10;}
	.st403{fill:none;stroke:#DB9C9C;stroke-width:2;stroke-linecap:round;stroke-miterlimit:10;}
	.st404{fill-rule:evenodd;clip-rule:evenodd;fill:none;stroke:#F28EA8;stroke-width:2;stroke-linecap:round;stroke-miterlimit:10;}
	.st405{fill-rule:evenodd;clip-rule:evenodd;fill:#FC86B1;}
	.st406{fill:none;stroke:#031572;stroke-linecap:round;stroke-miterlimit:10;}
	.st407{fill-rule:evenodd;clip-rule:evenodd;fill:#F28EA8;}
	.st408{fill:url(#SVGID_267_);}
	.st409{fill:none;stroke:#993062;stroke-miterlimit:10;}
	.st410{fill:#16409E;}
	.st411{fill:#993062;}
	.st412{fill:url(#SVGID_268_);}
	.st413{fill:url(#SVGID_269_);}
	.st414{fill:url(#SVGID_270_);}
	.st415{fill:url(#SVGID_271_);}
	.st416{fill:url(#SVGID_272_);}
	.st417{fill:url(#SVGID_273_);}
	.st418{fill:url(#SVGID_274_);}
	.st419{fill:none;stroke:url(#SVGID_275_);stroke-miterlimit:10;}
	.st420{fill:url(#SVGID_276_);}
	.st421{fill:url(#SVGID_277_);}
	.st422{fill:url(#SVGID_278_);}
	.st423{fill:url(#SVGID_279_);}
	.st424{fill:url(#SVGID_280_);}
	.st425{fill:#FFFFFF;stroke:#4D4DF7;stroke-width:0.5;stroke-miterlimit:10;}
	.st426{clip-path:url(#SVGID_282_);}
	.st427{fill:url(#SVGID_283_);}
	.st428{fill:url(#SVGID_284_);}
	.st429{fill:url(#SVGID_285_);}
	.st430{fill:url(#SVGID_286_);}
	.st431{fill:url(#SVGID_287_);}
	.st432{fill:url(#SVGID_288_);}
	.st433{fill:url(#SVGID_289_);}
	.st434{fill:url(#SVGID_290_);}
	.st435{fill:url(#SVGID_291_);}
	.st436{fill:url(#SVGID_292_);}
	.st437{fill:url(#SVGID_293_);}
	.st438{fill:url(#SVGID_294_);}
	.st439{fill:url(#SVGID_295_);}
	.st440{fill:url(#SVGID_296_);}
	.st441{fill:url(#SVGID_297_);}
	.st442{fill:url(#SVGID_298_);}
	.st443{fill:none;stroke:url(#SVGID_299_);stroke-miterlimit:10;}
	.st444{fill:none;stroke:url(#SVGID_300_);stroke-miterlimit:10;}
	.st445{fill:none;stroke:url(#SVGID_301_);stroke-miterlimit:10;}
	.st446{fill:url(#SVGID_302_);}
	.st447{fill:url(#SVGID_303_);}
	.st448{fill:url(#SVGID_304_);}
	.st449{fill:url(#SVGID_305_);}
	.st450{fill:none;stroke:url(#SVGID_306_);stroke-width:0.5;stroke-miterlimit:10;}
	.st451{fill:none;stroke:url(#SVGID_307_);stroke-width:0.5;stroke-miterlimit:10;}
	.st452{fill:none;stroke:url(#SVGID_308_);stroke-width:0.5;stroke-miterlimit:10;}
	.st453{fill:url(#SVGID_309_);}
	.st454{fill:none;stroke:url(#SVGID_310_);stroke-width:0.5;stroke-miterlimit:10;}
	.st455{fill:none;stroke:url(#SVGID_311_);stroke-width:0.5;stroke-miterlimit:10;}
	.st456{fill:none;stroke:url(#SVGID_312_);stroke-width:0.5;stroke-miterlimit:10;}
	.st457{fill:none;stroke:url(#SVGID_313_);stroke-width:0.5;stroke-miterlimit:10;}
	.st458{fill:none;stroke:url(#SVGID_314_);stroke-width:0.5;stroke-miterlimit:10;}
	.st459{fill:url(#SVGID_315_);}
	.st460{fill:none;stroke:url(#SVGID_316_);stroke-width:0.5;stroke-miterlimit:10;}
	.st461{fill:none;stroke:url(#SVGID_317_);stroke-width:0.5;stroke-miterlimit:10;}
	.st462{fill:none;stroke:url(#SVGID_318_);stroke-width:0.5;stroke-miterlimit:10;}
	.st463{fill:url(#SVGID_319_);}
	.st464{opacity:0.48;fill:#FFFFFF;}
	.st465{fill:url(#SVGID_320_);}
	.st466{clip-path:url(#SVGID_322_);}
	.st467{fill:url(#SVGID_323_);}
	.st468{opacity:0.35;fill:#FFFFFF;}
	.st469{fill:#DDDDDD;}
	.st470{fill:url(#SVGID_324_);}
	.st471{fill:url(#SVGID_325_);}
	.st472{fill:url(#SVGID_326_);}
</style>
<g>
	<defs>
		<rect id="SVGID_321_" y="-0.3" width="1514.7" height="300.3"/>
	</defs>
	<clipPath id="SVGID_1_">
		<use xlink:href="#SVGID_321_"  style="overflow:visible;"/>
	</clipPath>
	<g style="clip-path:url(#SVGID_1_);">
		<linearGradient id="SVGID_2_" gradientUnits="userSpaceOnUse" x1="0" y1="150.7768" x2="1514.6674" y2="150.7768">
			<stop  offset="0" style="stop-color:#7C94FB"/>
			<stop  offset="0.2283" style="stop-color:#6E8EFB"/>
			<stop  offset="0.6614" style="stop-color:#487FFB"/>
			<stop  offset="1" style="stop-color:#2672FB"/>
		</linearGradient>
		<rect y="0" class="st6" width="1514.7" height="301.5"/>
		<path class="st464" d="M1643.5-0.6c0,0-38.3,302.3-172.6,316.4c-227.6,24-155-122.5-274.1-114.5c-144.4,9.7-70.3-202-70.3-202
			L1643.5-0.6z"/>
		<path class="st468" d="M197.1,88.6c-90.1-6.7-197,45.3-197,45.3L0,300.3h417.8C406.7,269.2,341.1,99.2,197.1,88.6z"/>
		<g>
			<rect x="1170.1" y="104.2" class="st39" width="2" height="2.1"/>
			<path class="st392" d="M1131.3,191.6c0,0-13.8,0.4-12.2-3.8c1.4-3.6,16.5-18.4,19.9-21.2c9-7.5,26.4-9.3,26.4-9.3l14.8-2.2
				l15.1,0.9c0,0,20.5,5,29.2,16.3c5.6,7.3,13.1,13.1,14.1,18.9c1.5,8.7-5.4,15.9-5.4,15.9s-28.9,3.9-49.9,0.9
				C1169.8,206.1,1145.5,200.7,1131.3,191.6z"/>
			<path class="st398" d="M1186.9,158.4c-1.2-1.2,0.1-7,0.1-7l-12.8-1.6c0,0-0.3,2.4,0.1,6.6c0.1,0.7-0.7,2-1.9,2
				c-6.3-0.3-9.5,2.9-8.7,4.8c1.8,4.4,7.6,4.4,16.6,4.4c7.9,0,15.3-0.4,16.5-3.9c0.6-1.7-1.6-3.7-4.2-4.2
				C1190.6,159.1,1188,159.5,1186.9,158.4z"/>
			<path class="st469" d="M1172,71L1172,71c-11.6,0-21.1-9.4-21.1-21.1v-0.2c0-11.6,9.4-21.1,21.1-21.1l0,0
				c11.6,0,21.1,9.4,21.1,21.1v0.2C1193.1,61.6,1183.7,71,1172,71z"/>
			<linearGradient id="SVGID_3_" gradientUnits="userSpaceOnUse" x1="1162.2693" y1="49.2836" x2="1183.2135" y2="49.2836">
				<stop  offset="0" style="stop-color:#2672FB"/>
				<stop  offset="0.1292" style="stop-color:#3A7AFB"/>
				<stop  offset="0.35" style="stop-color:#5785FB"/>
				<stop  offset="0.5704" style="stop-color:#6C8DFB"/>
				<stop  offset="0.7881" style="stop-color:#7892FB"/>
				<stop  offset="1" style="stop-color:#7C94FB"/>
			</linearGradient>
			<polygon class="st24" points="1173,39.8 1162.3,47 1163.4,47 1163.4,58.8 1182,58.8 1182,47 1183.2,47 			"/>
			<polygon class="st469" points="1165.9,70.1 1161.3,79.1 1161.3,68.1 			"/>
			<g>
				<path class="st399" d="M1168.3,149c-2.7-1.3-5.4-8.8-8.5-10.3c0,0-3.6-5.9-4.8-12.1c-0.9-4.3,2.9-12.1,4.2-14.1
					c3.1-4.9,8.9-6.9,12.9-8.3c5.7-1.9,13.6-1.8,17.5,2.1c1.5,1.5,7.3,6.6,8.2,10.8c1.3,6.3,0.6,13.6,0.6,13.6s-1.1,8.3-3.2,12.6
					C1191.8,150,1175,152.4,1168.3,149z"/>
				<path class="st359" d="M1198.1,132.6c0.8-1,2.6-1.9,3.6-3.6c0.6-1,1.3-2.4,0.2-4.1c-1.7-2.8-3.9-1.9-5-1c-1.1,0.8-2,0.3-3.1-0.3
					c-1.4-0.8-2.4-2.5-3.8-4.1c-2.1-2.4-1.1-2.9-4.3-6.3c-2.2-2.3-4.2-0.2-11.1,1.2c-6.6,1.4-9.6,0.3-10.4,5c-0.4,2.4-0.4,4.3-0.9,6
					c-0.6,2.1,0,2.9-0.3,4.9c-0.3,2.2-1.8,1-4,1.4c-1,0.2-3.8,2.7-2.2,5.4c2.9,5.1,3.6,0.7,5.7,2.9c2.1,2.2,2.8,5,5,8.4
					c4.3,6.9,10.7,7.9,15.7,7.6c8.4-0.6,11.8-9,12.9-14.1C1196.9,138.2,1196.2,135.1,1198.1,132.6z"/>
				<ellipse cx="1174.2" cy="121.5" rx="1.3" ry="1.3"/>
				<ellipse cx="1180.3" cy="120.2" rx="1.3" ry="1.3"/>
				<path class="st400" d="M1179.8,133.2c-1.4,0.3-5.4,0.1-6.5,1.3c-3,3.3,2.6,8.5,7.7,7.5c5.1-1.1,8.3-9.1,5.3-10.5
					C1184.9,130.9,1181.3,132.9,1179.8,133.2z"/>
				<line class="st401" x1="1178.2" y1="124" x2="1179.1" y2="128.1"/>
			</g>
			<path class="st402" d="M1227.9,207.2c0,0-17.3,5.7-18.2-4.1c-1-10.9,6.8-15.1,11.6-16.4c3.8-1,13-1.4,18.1,5.6
				C1244.7,199.4,1227.9,207.2,1227.9,207.2z"/>
			<path class="st402" d="M1129.9,203.7c-3.8,0.2-15.9,1.2-15.5-6.2c0.3-6,5.7-9.7,8.8-11.2c5.6-2.7,9.4-2.8,12.5-2.3
				c3.9,0.6,11.7,3.2,9.4,12.8S1134.1,203.5,1129.9,203.7z"/>
			<path class="st359" d="M1223.8,181c-2.5-2.5-5.4-5.2-7.8-7.9c-6-6.9-10.8-13.7-13.5-17.2c-3.1-4-6.3-8.2-12.1-6.2
				c-3.9,1.4-9.1,5.6-7.4,7.4c0.9,1,2.2,0.5,5.6-0.1c1.2-0.2,2.3-0.3,3.3,0.6c1.6,1.4,4.9,5.3,6,8.2c6.9,17.7,7,23,11,29.5
				c1.5,2.4,4.2,6.6,7.7,8.8c3,1.9,7.6,4.7,11,5c5.3,0.4,8.3-6.3,4.5-15.5C1230.5,189.6,1228.6,186,1223.8,181z"/>
			<path class="st403" d="M1183.2,154.3c0.9-1.1,3.2-3.6,6.9-4.4"/>
			<path class="st404" d="M1207.9,184.6c0,0-2.4,3.7-7.4,3.1"/>
			<path class="st405" d="M1177.5,165.4c0,0,6.3,0,9.7,0.8c6.9,1.7,13.6,9.4,13.6,18.4v0c0,8-5.4,14.9-12.7,17.1
				c-0.6,0.2-1,0.7-1,1.3v2.8c0,0.7-0.6,1.3-1.3,1.3h-2.8c-0.7,0-1.3-0.6-1.3-1.3v-2c0-0.7-0.6-1.3-1.3-1.3h-6.9
				c-0.7,0-1.3,0.6-1.3,1.3v2c0,0.7-0.6,1.3-1.3,1.3h-2.8c-0.7,0-1.3-0.6-1.3-1.3v-2.4c0-0.6-0.5-1.2-1.1-1.3
				c-5-1.1-9.3-4.3-11.8-8.7c-0.2-0.4-0.6-0.6-1-0.7c-4-0.5-7.2-4-7.2-8.2c0-4,2.9-7.4,6.7-8.1c0.4-0.1,0.8-0.3,0.9-0.7
				c1.4-3,3.6-5.5,6.3-7.3c0.4-0.2,0.6-0.6,0.6-1.1v-10.9c0-0.8,0.7-1.4,1.5-1.3c6.7,0.5,9.4,4.9,10.3,9.3c0.1,0.6,0.7,1.1,1.3,1.1
				H1177.5"/>
			<path class="st406" d="M1176.8,170.2c0,0,2.9-0.1,5.2,0.1c2.3,0.2,5.1,0.7,5.1,0.7"/>
			<ellipse cx="1162.9" cy="176.5" rx="1.7" ry="1.7"/>
			<path class="st359" d="M1150.4,208.6c13,0.9,25.4,1.3,31.6,1.7c5.1,0.3,11.7-0.2,15.3-5.3c2.6-3.7,2.3-8.9,0.1-10
				c-1.2-0.6-0.8,0.1-3.2,3.1c-1.3,1.6-4,2.6-5.7,3c-2,0.5-8,0.2-10.8-0.9c-17.7-6.7-22-8.4-29.2-10.2c-2.6-0.7-6.6-2.3-14-1.5
				c-6,0.7-12.6,3.4-13.4,6c-1.3,4.3,0.9,7.9,5.5,10.4C1131.2,207.5,1140,208,1150.4,208.6z"/>
		</g>
		<g>
			<linearGradient id="SVGID_4_" gradientUnits="userSpaceOnUse" x1="1233.9642" y1="226.6844" x2="1410.873" y2="226.6844">
				<stop  offset="0" style="stop-color:#E2E5ED"/>
				<stop  offset="0.3639" style="stop-color:#E7EAF2"/>
				<stop  offset="0.5729" style="stop-color:#EDEFF7"/>
				<stop  offset="0.844" style="stop-color:#EFF1F8"/>
				<stop  offset="0.9415" style="stop-color:#F6F7FB"/>
				<stop  offset="1" style="stop-color:#FFFFFF"/>
			</linearGradient>
			<path class="st25" d="M1410.9,277.7c0,0-102.6-1.7-66-134.2l-98.2,24.7c0,0-33.7,59.8,8.3,111.5c40.4,49.8,97.8,23.2,97.8,23.2
				L1410.9,277.7z"/>
			<path class="st174" d="M1256.9,186.6l27.5-6.8c0,0-7.5,16.5-3.7,38.8l-27.7,8.1C1253,226.7,1247.1,205.3,1256.9,186.6z"/>
			<path class="st174" d="M1303.3,229.7l27-7.7c0,0-2.2,17.5,15.1,33l-25.7,8.1C1319.8,263.2,1300.1,249.2,1303.3,229.7z"/>
			<line class="st172" x1="1292.4" y1="178.5" x2="1328.2" y2="168.8"/>
			<line class="st172" x1="1289.9" y1="190.2" x2="1325.7" y2="180.6"/>
			<line class="st172" x1="1288.1" y1="202.4" x2="1323.9" y2="192.8"/>
			<line class="st175" x1="1256.6" y1="242.8" x2="1292.4" y2="233.1"/>
			<line class="st175" x1="1259.2" y1="254.1" x2="1295" y2="244.4"/>
			<line class="st175" x1="1266" y1="264.7" x2="1301.8" y2="255.1"/>
			<line class="st175" x1="1274.5" y1="274.1" x2="1310.3" y2="264.5"/>
			<line class="st172" x1="1322.7" y1="278.9" x2="1357.5" y2="268.2"/>
			<line class="st172" x1="1335.1" y1="284.7" x2="1368.8" y2="274"/>
			<line class="st172" x1="1349.4" y1="289.5" x2="1383.2" y2="277.8"/>
			<path class="st174" d="M1288,289.5c0,0,9.7,19.6,55.8,13.2l22.1-8.2c0,0-39.2,6.7-50.9-12.7L1288,289.5z"/>
		</g>
		<g>
			<path class="st180" d="M1348.4,305l82-35.9c0,0,38.7-14.2,54.5-63.7c12.3-38.5-22.6-80.6,38.8-132.1c0,0-59.3,20-103,34.8
				c-43.1,14.6-33.6,75.4-28.2,102.8C1401.4,256,1371.7,292.4,1348.4,305z"/>
			<g>
				<path class="st5" d="M1418.2,109c0,0,14.5-6.1,34.1,5.1c10,5.7,22.5,16.4,32.7,33.4c17.9,30.1,19.7,53.8,36.7,88
					c12.3,24.8,41,47.2,60.7,47.2V106.1c0,0-5.1-13.5-17.9-24.2c-15.1-12.6-39.4-9-39.4-9L1418.2,109z"/>
				<line class="st182" x1="1467" y1="103.7" x2="1536.8" y2="80.2"/>
				<line class="st182" x1="1491" y1="117.4" x2="1560.8" y2="93.9"/>
				<line class="st182" x1="1507" y1="135.1" x2="1575.8" y2="112.5"/>
				<line class="st182" x1="1514.2" y1="155.2" x2="1583.5" y2="131.8"/>
			</g>
		</g>
		<g>
			<path class="st164" d="M207.8,288.4l-71,23.3c-11,3.6-22.9-2.5-26.5-13.5L48,106.2c-3.6-11,2.5-23,13.5-26.6l71-23.3
				c11-3.6,22.9,2.5,26.5,13.5l62.2,192C224.8,272.9,218.8,284.8,207.8,288.4z"/>
			<linearGradient id="SVGID_5_" gradientUnits="userSpaceOnUse" x1="52.4161" y1="182.2765" x2="227.1695" y2="182.2765">
				<stop  offset="0" style="stop-color:#2672FB"/>
				<stop  offset="0.1292" style="stop-color:#3A7AFB"/>
				<stop  offset="0.35" style="stop-color:#5785FB"/>
				<stop  offset="0.5704" style="stop-color:#6C8DFB"/>
				<stop  offset="0.7881" style="stop-color:#7892FB"/>
				<stop  offset="1" style="stop-color:#7C94FB"/>
			</linearGradient>
			<path class="st26" d="M212,287l-69.1,22.6c-11.5,3.8-24-2.6-27.7-14.2L53.5,105.4c-3.7-11.6,2.6-24.1,14.1-27.9l69.1-22.6
				c11.5-3.8,24,2.6,27.7,14.2l61.6,190.1C229.8,270.7,223.5,283.2,212,287z"/>
			<path class="st5" d="M216.1,258.7l-93,30.5c-1.6,0.5-3.3-0.4-3.8-1.9L61,107.2c-0.5-1.6,0.4-3.3,1.9-3.8l93-30.5
				c1.6-0.5,3.3,0.4,3.8,1.9l58.4,180C218.5,256.4,217.7,258.1,216.1,258.7z"/>
			<line class="st2" x1="99.3" y1="81" x2="121.1" y2="73.9"/>
		</g>
		<g>
			<g>
				<g>
					<path class="st170" d="M136,212.8c0.4-0.1,0.8,0.1,0.9,0.5s-0.1,0.8-0.5,0.9l-23,7.4c-0.4,0.1-0.8-0.1-0.9-0.5
						c-0.1-0.4,0.1-0.8,0.5-0.9L136,212.8z"/>
				</g>
				<g>
					<path class="st169" d="M182.7,197.8c0.4-0.1,0.8,0.1,0.9,0.5s-0.1,0.8-0.5,0.9l-40.9,13.2c-0.4,0.1-0.8-0.1-0.9-0.5
						c-0.1-0.4,0.1-0.8,0.5-0.9L182.7,197.8z"/>
				</g>
				<g>
					<path class="st170" d="M185.6,207c0.4-0.1,0.8,0.1,0.9,0.5c0.1,0.4-0.1,0.8-0.5,0.9l-10.2,3.3c-0.4,0.1-0.8-0.1-0.9-0.5
						c-0.1-0.4,0.1-0.8,0.5-0.9L185.6,207z"/>
				</g>
				<g>
					<path class="st170" d="M147.5,249.7c0.4-0.1,0.8,0.1,0.9,0.5s-0.1,0.8-0.5,0.9l-23,7.4c-0.4,0.1-0.8-0.1-0.9-0.5
						c-0.1-0.4,0.1-0.8,0.5-0.9L147.5,249.7z"/>
				</g>
				<g class="st171">
					<g>
						<path class="st170" d="M191.3,225.4c0.4-0.1,0.8,0.1,0.9,0.5c0.1,0.4-0.1,0.8-0.5,0.9l-29.4,9.5c-0.4,0.1-0.8-0.1-0.9-0.5
							c-0.1-0.4,0.1-0.8,0.5-0.9L191.3,225.4z"/>
					</g>
					<g>
						<path class="st0" d="M177.7,240c0.4-0.1,0.8,0.1,0.9,0.5s-0.1,0.8-0.5,0.9l-22.2,7.2c-0.4,0.1-0.8-0.1-0.9-0.5
							s0.1-0.8,0.5-0.9L177.7,240z"/>
					</g>
					<g>
						<path class="st168" d="M179.8,188.6c0.4-0.1,0.8,0.1,0.9,0.5s-0.1,0.8-0.5,0.9l-10.2,3.3c-0.4,0.1-0.8-0.1-0.9-0.5
							s0.1-0.8,0.5-0.9L179.8,188.6z"/>
					</g>
					<g>
						<path class="st169" d="M188.4,216.2c0.4-0.1,0.8,0.1,0.9,0.5c0.1,0.4-0.1,0.8-0.5,0.9L148,230.8c-0.4,0.1-0.8-0.1-0.9-0.5
							s0.1-0.8,0.5-0.9L188.4,216.2z"/>
					</g>
					<g>
						<path class="st170" d="M177,179.3c0.4-0.1,0.8,0.1,0.9,0.5c0.1,0.4-0.1,0.8-0.5,0.9l-29.4,9.5c-0.4,0.1-0.8-0.1-0.9-0.5
							c-0.1-0.4,0.1-0.8,0.5-0.9L177,179.3z"/>
					</g>
					<g>
						<path class="st169" d="M174.1,170.1c0.4-0.1,0.8,0.1,0.9,0.5s-0.1,0.8-0.5,0.9l-40.9,13.2c-0.4,0.1-0.8-0.1-0.9-0.5
							s0.1-0.8,0.5-0.9L174.1,170.1z"/>
					</g>
					<g>
						<path class="st169" d="M127.4,225.7c0.4-0.1,0.8,0.1,0.9,0.5c0.1,0.4-0.1,0.8-0.5,0.9l-11.5,3.7c-0.4,0.1-0.8-0.1-0.9-0.5
							c-0.1-0.4,0.1-0.8,0.5-0.9L127.4,225.7z"/>
					</g>
					<g>
						<polygon class="st5" points="163.6,138.9 165.1,143.5 137.1,152.5 135.7,147.9 						"/>
					</g>
					<g>
						<path class="st0" d="M169.1,212.3c0.4-0.1,0.8,0.1,0.9,0.5c0.1,0.4-0.1,0.8-0.5,0.9L133,225.5c-0.4,0.1-0.8-0.1-0.9-0.5
							c-0.1-0.4,0.1-0.8,0.5-0.9L169.1,212.3z"/>
					</g>
					<g>
						<path class="st170" d="M133.2,203.6c0.4-0.1,0.8,0.1,0.9,0.5c0.1,0.4-0.1,0.8-0.5,0.9l-23,7.4c-0.4,0.1-0.8-0.1-0.9-0.5
							s0.1-0.8,0.5-0.9L133.2,203.6z"/>
					</g>
					<g>
						<path class="st168" d="M136.4,101.3l0.1,0.1L141,116l0.1,0.1l14.4-4.7c2.6,8.2-1.9,16.8-9.9,19.4c-0.2,0.1-0.5,0.1-0.7,0.2
							c-7.5,2-15.5-2.2-18.2-9.6C123.7,113.1,128.2,104,136.4,101.3z"/>
					</g>
					<g>
						<path class="st170" d="M121.7,166.7c0.4-0.1,0.8,0.1,0.9,0.5s-0.1,0.8-0.5,0.9l-23,7.4c-0.4,0.1-0.8-0.1-0.9-0.5
							c-0.1-0.4,0.1-0.8,0.5-0.9L121.7,166.7z"/>
					</g>
					<g>
						<polygon class="st5" points="96.8,165.5 95.4,160.9 125,151.4 126.4,156 						"/>
					</g>
					<g>
						<path class="st5" d="M211.5,248.6L158.3,77.4c-0.6-2-2.7-3.1-4.7-2.5l-86.8,28c-2,0.6-3.1,2.8-2.5,4.8l53.1,171.2
							c0.6,2,2.7,3.1,4.7,2.5l86.8-28C211,252.7,212.1,250.5,211.5,248.6z M192.2,225.9c0.1,0.4-0.1,0.8-0.5,0.9l-29.4,9.5
							c-0.4,0.1-0.8-0.1-0.9-0.5c-0.1-0.4,0.1-0.8,0.5-0.9l29.4-9.5C191.7,225.3,192.1,225.5,192.2,225.9 M189.4,216.7
							c0.1,0.4-0.1,0.8-0.5,0.9L148,230.8c-0.4,0.1-0.8-0.1-0.9-0.5c-0.1-0.4,0.1-0.8,0.5-0.9l40.9-13.2
							C188.8,216.1,189.2,216.3,189.4,216.7 M169.1,212.3c0.1,0,0.2,0,0.3,0c0.3,0,0.5,0.2,0.6,0.5c0.1,0.4-0.1,0.8-0.5,0.9
							L133,225.5c-0.1,0-0.2,0-0.3,0c-0.1,0-0.2-0.1-0.4-0.1c-0.1,0-0.1-0.1-0.1-0.1c-0.1-0.1-0.1-0.2-0.1-0.3c0,0,0-0.1,0-0.1
							c0,0,0,0,0,0c0-0.2,0.1-0.5,0.3-0.6c0.1-0.1,0.2-0.1,0.3-0.1L169.1,212.3 M141.2,201l22.2-7.2c0.4-0.1,0.8,0.1,0.9,0.5
							c0.1,0.4-0.1,0.8-0.5,0.9l-22.2,7.2c-0.4,0.1-0.8-0.1-0.9-0.5C140.6,201.6,140.8,201.1,141.2,201 M186.5,207.5
							c0.1,0.4-0.1,0.8-0.5,0.9l-10.2,3.3c-0.4,0.1-0.8-0.1-0.9-0.5c-0.1-0.4,0.1-0.8,0.5-0.9l10.2-3.3
							C186,206.9,186.4,207.1,186.5,207.5 M183.6,198.3c0.1,0.4-0.1,0.8-0.5,0.9l-40.9,13.2c-0.4,0.1-0.8-0.1-0.9-0.5
							c-0.1-0.4,0.1-0.8,0.5-0.9l40.9-13.2C183.1,197.6,183.5,197.9,183.6,198.3 M180.8,189c0.1,0.4-0.1,0.8-0.5,0.9l-10.2,3.3
							c-0.4,0.1-0.8-0.1-0.9-0.5c-0.1-0.4,0.1-0.8,0.5-0.9l10.2-3.3C180.2,188.4,180.6,188.7,180.8,189 M177.9,179.8
							c0.1,0.4-0.1,0.8-0.5,0.9l-29.4,9.5c-0.4,0.1-0.8-0.1-0.9-0.5c-0.1-0.4,0.1-0.8,0.5-0.9l29.4-9.5
							C177.4,179.2,177.8,179.4,177.9,179.8 M175,170.6c0.1,0.4-0.1,0.8-0.5,0.9l-40.9,13.2c-0.4,0.1-0.8-0.1-0.9-0.5
							s0.1-0.8,0.5-0.9l40.9-13.2C174.5,170,174.9,170.2,175,170.6 M118.7,179.4c-0.4,0.1-0.8-0.1-0.9-0.5c-0.1-0.4,0.1-0.8,0.5-0.9
							l36.5-11.8c0.4-0.1,0.8,0.1,0.9,0.5c0.1,0.4-0.1,0.8-0.5,0.9L118.7,179.4 M172.2,161.4c0.1,0.4-0.1,0.8-0.5,0.9l-10.2,3.3
							c-0.4,0.1-0.8-0.1-0.9-0.5c-0.1-0.4,0.1-0.8,0.5-0.9l10.2-3.3C171.6,160.8,172.1,161,172.2,161.4 M169.3,152.2
							c0.1,0.4-0.1,0.8-0.5,0.9L128,166.3c-0.4,0.1-0.8-0.1-0.9-0.5s0.1-0.8,0.5-0.9l40.9-13.2C168.8,151.6,169.2,151.8,169.3,152.2
							 M166.7,143.8l0.2,0.7l-30.8,9.9l-2.3-7.5l30.8-9.9L166.7,143.8 M139.7,96.3c8-2.5,16.5,1.9,19,10l-0.1,0.1l-14.4,4.6
							l-0.1-0.1l-4.5-14.5L139.7,96.3 M136.4,101.3l0.1,0.1L141,116l0.1,0.1l14.5-4.6c2.5,8.1-2,16.8-10,19.4
							c-0.2,0.1-0.5,0.1-0.7,0.2c-7.5,2-15.5-2.2-18.2-9.6C123.7,113.1,128.2,104,136.4,101.3 M102.2,106.1L102.2,106.1
							c3.1,0,6.1,0.9,8.6,2.7l0,0.1l-8.6,12.5l-0.1,0L102.2,106.1 M87.7,139.1c-4.8-6.3-4-15.5,1.8-20.8c1.7-1.6,3.7-2.7,5.7-3.4
							c1.5-0.5,3-0.7,4.6-0.7l0.1,0.1l-0.1,15.2l0.1,0l8.5-12.4l0.2,0c1,0.7,2,1.6,2.8,2.6c5.4,6.5,4.6,16.3-1.8,21.8
							c-1.6,1.4-3.4,2.4-5.3,3C98.5,146.3,91.8,144.4,87.7,139.1 M93.5,159.9l32.4-10.5l2.1,6.8l0.2,0.7l-32.4,10.5L93.5,159.9
							 M98.2,175.1c-0.1-0.4,0.1-0.8,0.5-0.9l23-7.4c0.4-0.1,0.8,0.1,0.9,0.5c0.1,0.4-0.1,0.8-0.5,0.9l-23,7.4
							C98.8,175.7,98.3,175.5,98.2,175.1 M101.1,184.3c-0.1-0.4,0.1-0.8,0.5-0.9l11.5-3.7c0.4-0.1,0.8,0.1,0.9,0.5
							c0.1,0.4-0.1,0.8-0.5,0.9l-11.5,3.7C101.6,184.9,101.2,184.7,101.1,184.3 M103.9,193.5c-0.1-0.4,0.1-0.8,0.5-0.9l23-7.4
							c0.4-0.1,0.8,0.1,0.9,0.5c0.1,0.4-0.1,0.8-0.5,0.9l-23,7.4C104.5,194.1,104.1,193.9,103.9,193.5 M106.8,202.7
							c-0.1-0.4,0.1-0.8,0.5-0.9l34.5-11.1c0.4-0.1,0.8,0.1,0.9,0.5c0.1,0.4-0.1,0.8-0.5,0.9l-34.5,11.1
							C107.3,203.4,106.9,203.1,106.8,202.7 M109.7,212c-0.1-0.4,0.1-0.8,0.5-0.9l23-7.4c0.4-0.1,0.8,0.1,0.9,0.5
							c0.1,0.4-0.1,0.8-0.5,0.9l-23,7.4C110.2,212.6,109.8,212.4,109.7,212 M112.5,221.2c-0.1-0.4,0.1-0.8,0.5-0.9l23-7.4
							c0.4-0.1,0.8,0.1,0.9,0.5c0.1,0.4-0.1,0.8-0.5,0.9l-23,7.4C113.1,221.8,112.7,221.6,112.5,221.2 M116.3,230.9
							c-0.4,0.1-0.8-0.1-0.9-0.5c-0.1-0.4,0.1-0.8,0.5-0.9l11.5-3.7c0.4-0.1,0.8,0.1,0.9,0.5c0.1,0.4-0.1,0.8-0.5,0.9L116.3,230.9
							 M118.3,239.6c-0.1-0.4,0.1-0.8,0.5-0.9l23-7.4c0.4-0.1,0.8,0.1,0.9,0.5c0.1,0.4-0.1,0.8-0.5,0.9l-23,7.4
							C118.8,240.2,118.4,240,118.3,239.6 M122.1,249.3c-0.4,0.1-0.8-0.1-0.9-0.5c-0.1-0.4,0.1-0.8,0.5-0.9l34.5-11.1
							c0.4-0.1,0.8,0.1,0.9,0.5c0.1,0.4-0.1,0.8-0.5,0.9L122.1,249.3 M147.9,251.1l-23,7.4c-0.4,0.1-0.8-0.1-0.9-0.5
							c-0.1-0.4,0.1-0.8,0.5-0.9l23-7.4c0.4-0.1,0.8,0.1,0.9,0.5C148.5,250.6,148.3,251,147.9,251.1 M178.1,241.4l-22.2,7.2
							c-0.4,0.1-0.8-0.1-0.9-0.5c-0.1-0.4,0.1-0.8,0.5-0.9l22.2-7.2c0.4-0.1,0.8,0.1,0.9,0.5S178.5,241.3,178.1,241.4 M194.6,236.1
							l-10.2,3.3c-0.4,0.1-0.8-0.1-0.9-0.5c-0.1-0.4,0.1-0.8,0.5-0.9l10.2-3.3c0.4-0.1,0.8,0.1,0.9,0.5
							C195.2,235.5,195,236,194.6,236.1"/>
					</g>
					<g>
						<path class="st0" d="M163.4,193.9c0.4-0.1,0.8,0.1,0.9,0.5s-0.1,0.8-0.5,0.9l-22.2,7.2c-0.4,0.1-0.8-0.1-0.9-0.5
							c-0.1-0.4,0.1-0.8,0.5-0.9L163.4,193.9z"/>
					</g>
					<g>
						<path class="st168" d="M156.1,236.8c0.4-0.1,0.8,0.1,0.9,0.5c0.1,0.4-0.1,0.8-0.5,0.9l-34.5,11.1c-0.4,0.1-0.8-0.1-0.9-0.5
							c-0.1-0.4,0.1-0.8,0.5-0.9L156.1,236.8z"/>
					</g>
					<g>
						<path class="st170" d="M141.8,231.3c0.4-0.1,0.8,0.1,0.9,0.5s-0.1,0.8-0.5,0.9l-23,7.4c-0.4,0.1-0.8-0.1-0.9-0.5
							s0.1-0.8,0.5-0.9L141.8,231.3z"/>
					</g>
					<g>
						<path class="st0" d="M133.8,146.9l30.8-9.9l2.1,6.8l0.2,0.7l-30.8,9.9L133.8,146.9z M165.1,143.5l-1.4-4.6l-28,9l1.4,4.6
							L165.1,143.5"/>
					</g>
					<g>
						<path class="st169" d="M168.4,151.7c0.4-0.1,0.8,0.1,0.9,0.5s-0.1,0.8-0.5,0.9L128,166.3c-0.4,0.1-0.8-0.1-0.9-0.5
							c-0.1-0.4,0.1-0.8,0.5-0.9L168.4,151.7z"/>
					</g>
					<g>
						<path class="st0" d="M154.8,166.2c0.4-0.1,0.8,0.1,0.9,0.5c0.1,0.4-0.1,0.8-0.5,0.9l-36.5,11.8c-0.4,0.1-0.8-0.1-0.9-0.5
							c-0.1-0.4,0.1-0.8,0.5-0.9L154.8,166.2z"/>
					</g>
					<g>
						<path class="st168" d="M141.8,190.7c0.4-0.1,0.8,0.1,0.9,0.5c0.1,0.4-0.1,0.8-0.5,0.9l-34.5,11.1c-0.4,0.1-0.8-0.1-0.9-0.5
							c-0.1-0.4,0.1-0.8,0.5-0.9L141.8,190.7z"/>
					</g>
					<g>
						<path class="st170" d="M127.4,185.2c0.4-0.1,0.8,0.1,0.9,0.5s-0.1,0.8-0.5,0.9l-23,7.4c-0.4,0.1-0.8-0.1-0.9-0.5
							c-0.1-0.4,0.1-0.8,0.5-0.9L127.4,185.2z"/>
					</g>
					<g>
						<path class="st169" d="M113.1,179.7c0.4-0.1,0.8,0.1,0.9,0.5c0.1,0.4-0.1,0.8-0.5,0.9l-11.5,3.7c-0.4,0.1-0.8-0.1-0.9-0.5
							c-0.1-0.4,0.1-0.8,0.5-0.9L113.1,179.7z"/>
					</g>
					<g>
						<path class="st0" d="M93.5,159.9l32.4-10.5l2.1,6.8l0.2,0.7l-32.4,10.5L93.5,159.9z M126.4,156l-1.4-4.6l-29.6,9.5l1.4,4.6
							L126.4,156"/>
					</g>
				</g>
				<g>
					<path class="st167" d="M139.7,96.3c8-2.5,16.5,1.9,19,10l-0.1,0.1l-14.4,4.6l-0.1-0.1l-4.5-14.5L139.7,96.3z"/>
				</g>
				<g>
					<path class="st168" d="M171.3,160.9c0.4-0.1,0.8,0.1,0.9,0.5c0.1,0.4-0.1,0.8-0.5,0.9l-10.2,3.3c-0.4,0.1-0.8-0.1-0.9-0.5
						c-0.1-0.4,0.1-0.8,0.5-0.9L171.3,160.9z"/>
				</g>
				<g>
					<path class="st168" d="M194.2,234.6c0.4-0.1,0.8,0.1,0.9,0.5s-0.1,0.8-0.5,0.9l-10.2,3.3c-0.4,0.1-0.8-0.1-0.9-0.5
						s0.1-0.8,0.5-0.9L194.2,234.6z"/>
				</g>
				<g>
					<path class="st168" d="M102.3,106.1c3,0,6,0.9,8.5,2.7l0,0.1l-8.6,12.5l-0.1,0L102.3,106.1L102.3,106.1z"/>
				</g>
				<g>
					<path class="st167" d="M95.3,114.9c1.5-0.5,3-0.7,4.6-0.7l0.1,0.1l-0.1,15.2l0.1,0l8.5-12.4l0.2,0c1,0.7,2,1.6,2.8,2.6
						c5.4,6.5,4.6,16.3-1.8,21.8c-1.6,1.4-3.4,2.4-5.3,3c-5.9,1.9-12.6,0.1-16.7-5.3c-4.8-6.3-4-15.5,1.8-20.8
						C91.2,116.7,93.2,115.5,95.3,114.9z"/>
				</g>
			</g>
		</g>
		<g>
			<path class="st347" d="M370,148.8c0,0-5.1,16.1,12.3,16c7.7-0.1,11,2.1,13.5,7.3c3.2,6.7,0.8,10.7-2,14.4
				c-4.6,6.1-2.1,17,11.5,18.1l-66.8,7.6L370,148.8z"/>
			<path class="st14" d="M332,224.2c-2.8,2.4-28-1.9-49.8-47.3c0,0-5.3-9.1,5.6-2.1S342.2,215.3,332,224.2z"/>
			<path class="st347" d="M371.1,185.3c6.4,10.9,29.3,25.1,45.6,16.9c15.4-7.8,57.5-3.7,53.9,37c-1.5,16.7-39.3,71.4-98.6,45.9
				c-45.7-19.7-73.5-55-57.2-88.3c4.5-9.2,22.3-12.8,16.4-37.5s1.1-37.2,15.3-40.9c15.6-4.1,27.8,13.4,24.4,28.1
				C368.5,156.1,359.1,164.6,371.1,185.3z"/>
			<path class="st360" d="M363.2,162.8c15,5.7,14.7,13.6,14.3,46.4c-0.3,22.7,3.3,36.1,8.3,46.9c7,15.1,8,23.7,7.8,40.7
				c-0.2,17.6-79.1-18.9-75.9-33c1.4-5.9,10.3-13.8,11-22.7c1.1-13.5-6.3-28.6-5.9-37.7c0.4-9.8,10.7-30.2,18.4-35.8
				C346.8,163.4,355.6,160,363.2,162.8z"/>
			<path class="st361" d="M392.1,300.1c0.8-0.9,4.7-4.8-5.3-9.3c-11.1-5-19.6-10.7-30.4-35.6c0,0,1.9,20.3-3.9,36.1
				c0,0,19.2,9.2,31.1,10C387.9,301.7,390.6,301.6,392.1,300.1z"/>
			<path class="st362" d="M327.6,295.3c0,0-2.5,5.4-7.4,5c-5.7-0.4-11.8-2.5-19.4-2.6c-11.4-0.2-24.6,5.2-27.1-10.5
				c-2.4-14.5,7.5-38.3,7.5-38.3L327.6,295.3z"/>
			<path class="st363" d="M299.4,251.6c0,0-33.3-17.5-35.1,7.3s-6.9,120.5-6.9,120.5s1.5,7.2,6.7,0.5
				C273.6,367.4,290.7,325.3,299.4,251.6z"/>
			<path class="st364" d="M344.9,127.8c6.9-1.9,18.7,6.9,9.7,22.9c-4.4,7.8-10.4,12.4-14.6,10.4c-4.1-1.9-6.8-9.8-6.4-17.9
				C333.9,135.2,337.3,129.9,344.9,127.8z"/>
			<path class="st347" d="M347,124.5c0,0-6.3,8.2-2.6,14.8c1.7,3.1,6,2.9,8.4,2.7c0,0-4.2-1-0.8-7.2c1.5-2.7,0.4-5.6,2.9-6.7
				C360.4,125.8,347,124.5,347,124.5z"/>
			<path class="st347" d="M352.4,129.2c0,0-2.3,12.4,3.4,15.3c1.5,0.7,5.9,2.1,5.9,2.1l-2.8-14.9L352.4,129.2z"/>
			<polygon class="st5" points="278.6,152.7 235.1,163.3 249,225.8 290.9,218.4 			"/>
			<g>
				<ellipse cx="342.2" cy="142.2" rx="1" ry="1"/>
				<ellipse cx="337.5" cy="142.2" rx="1" ry="1"/>
				<path class="st366" d="M339.5,144.7c0,0-1.6,2.1-1.6,2.7c0,0.4,1.6,0.5,1.6,0.5"/>
				<path class="st367" d="M343.2,153.7c0,0-0.7,2.2-3.1,1.1"/>
			</g>
			<path class="st291" d="M356.8,145.8c0,0-3.1,12.5,4.4,19.3l-12.4,1.1c0,0-4.3-13.4,1.5-20.3L356.8,145.8z"/>
			<path class="st361" d="M392.1,300.1c0.8-0.9,4.7-4.8-5.3-9.3c-11.1-5-19.6-10.7-30.4-35.6c0,0,1.9,20.3-3.9,36.1
				c0,0,19.2,9.2,31.1,10C387.9,301.7,390.6,301.6,392.1,300.1z"/>
			<path class="st14" d="M344.9,127.8c6.9-1.9,18.7,6.9,9.7,22.9c-4.4,7.8-10.4,12.4-14.6,10.4c-4.1-1.9-6.8-9.8-6.4-17.9
				C333.9,135.2,337.3,129.8,344.9,127.8z"/>
			<path class="st347" d="M345.3,122.8c0,0-6.3,8.2-2.6,14.8c1.7,3.1,6,2.9,8.4,2.7c0,0-4.2-1-0.8-7.2c1.5-2.7,0.4-5.6,2.9-6.7
				C358.7,124,345.3,122.8,345.3,122.8z"/>
			<path class="st347" d="M351.3,127.4c0,0-1.2,14.1,4.5,17c1.5,0.7,5.9,2.1,5.9,2.1l-2.8-14.9L351.3,127.4z"/>
			<g>
				<ellipse class="st347" cx="342.2" cy="142.2" rx="1" ry="1"/>
				<ellipse class="st347" cx="337.5" cy="142.2" rx="1" ry="1"/>
				<path class="st368" d="M339.5,144.7c0,0-1.6,2.1-1.6,2.7c0,0.4,1.6,0.5,1.6,0.5"/>
			</g>
			<g>
				<polygon class="st369" points="364.7,141 350.6,144.4 348.8,145.6 350.9,145.5 365,142.2 				"/>
				<polygon class="st5" points="350.6,144.4 350.9,145.5 348.8,145.6 				"/>
				<polygon points="349.3,145.2 349.3,145.6 348.8,145.6 				"/>
			</g>
			<path class="st370" d="M339.4,153.6c-0.6-0.8,2.9-1.7,3.8-1.3c1.1,0.4,2.1,4.2,0.9,4.6C342.8,157.2,340.7,155.6,339.4,153.6z"/>
			<path class="st291" d="M344.8,166.4c0,0,3.5-2.2,4.9-2.6c0.7-0.2,2.3-1.5,4.6-1.9c2.3-0.4,5.2,0,7,0.3c3.5,0.7,1.6,2.8-1.4,4.9
				c-3.6,2.5-10.7,3.1-13.1,2.3C344.4,168.8,344.8,166.4,344.8,166.4z"/>
			<path class="st360" d="M346.5,194.6c0,0,11.7,7.4,27.2,7.8c0,0,6.5-13.4,4.2-23.5c-0.9-3.8-2.8-9.4-6.9-10.4
				C362.8,166.4,354.8,166.1,346.5,194.6z"/>
			<path class="st371" d="M348,204.7c-0.8-0.6-2.8-2.2-2.3-3.3c0.5-1.2,3.6-1.9,8.8-1.8c3,0,7.2-1.3,9.5-0.8c5.7,1.1,8.2,5.1,9,8.1
				C374.2,211.4,353.2,208.2,348,204.7z"/>
			<path class="st14" d="M365,221.3c-0.1,1.4-2.7,7.5-8.8,9.6c-10.4,3.6-32,3.6-61.5-7.6c0,0-10.2-7,2.6-5.4
				c6.3,0.8,20.4-1.6,33.4-3C348.9,213.1,365.8,213.4,365,221.3z"/>
			<path class="st14" d="M371.4,204.4c0,0-2.8,8.8-4.6,13.8c-1.8,5-3.7,7.2-3.7,7.2l-15.1-8.1c0,0,0.8-3.7,1.9-9.4
				c0.4-2,2-8.2,2-8.2s5.8-0.6,11,0.4C366.5,200.9,369.7,202.6,371.4,204.4z"/>
			<path class="st372" d="M248.4,178.8l71.7,4.7c1.2,0.1,2.2,1,2.3,2.2l6.5,50.1c0.2,1.6-1.1,2.9-2.7,2.8l-71.8-5.4
				c-1.2-0.1-2.1-1-2.3-2.2l-6.4-49.4C245.5,180.1,246.8,178.7,248.4,178.8z"/>
			<path class="st5" d="M290.3,207.9c-0.3,0.2-0.7,0.3-1.1,0.3c-1.1,0-2-0.9-2-2c0-0.9,0.6-1.7,1.4-1.9c-0.5-0.8-1.2-1.5-2-2
				c-0.1,0-0.1-0.1-0.2-0.1c-0.1,0-0.1,0-0.2,0.1c-0.6,0.4-1,0.9-1.5,1.4c-1.4,1.7-2.3,3.7-2.7,6c-0.2,1.3,0.2,2.3,1.2,3.1
				c0.8,0.7,1.8,0.9,2.9,1c0.1,0,0.2,0,0.4,0c1.4-0.1,2.7-0.6,3.6-1.9c0.4-0.6,0.7-1.2,0.5-1.9C290.6,209.3,290.5,208.6,290.3,207.9
				z"/>
			<path class="st373" d="M356.4,255.2c0,0-8.9-14.8-27.6-17.1l-6.5,5.1c-4.5-3.4-9.7-7-15.9-10.5c-44-25.1-26.1,17-26.1,17
				c19,43.8,26.3,54.2,57,52.8c6.5-0.3,12.1-4.8,14.9-8C359.4,286,357.8,279.2,356.4,255.2z"/>
			<path class="st374" d="M328.7,238.1c0,0,19.9,0.7,31.7,24.5c10.7,21.6,17.1,23.1,25.9,27.9c2.3,1.2,5.9,2.4,8,6.6"/>
			<g>
				<path class="st291" d="M364,198.8c-1.9-0.4-4.9,0.4-7.6,0.7c1.9,0,4.3,0.2,6.5,0.6c3.6,0.7,6.8,2.4,8.5,4.2l0.2-0.6
					c0,0-0.8-1.4-2.5-2.8C367.7,199.9,365.9,199.2,364,198.8z"/>
				<path class="st14" d="M354.5,199.7c0.6,0,1.2,0,1.9-0.1c-1.7,0-3.2,0.1-3.9,0.1C353.1,199.7,353.8,199.7,354.5,199.7z"/>
				<path class="st291" d="M362.9,200.2c-2.2-0.4-4.6-0.6-6.5-0.6c-0.7,0.1-1.3,0.1-1.9,0.1c-0.7,0-1.4,0-2,0
					c-0.4,0-0.6,0.1-0.6,0.1l-0.9,3.4c0,0,2.8,0.8,5.6,0.1c3.1-0.8,5.9-1.2,7.7-0.9c4.6,0.8,6.3,4.9,6.3,4.9l0.9-2.8
					C369.7,202.6,366.5,200.9,362.9,200.2z"/>
			</g>
			<g>
				<path class="st375" d="M278.4,275.9c2-0.7,5.3-1.1,8.9,0.7c3.8,1.9,7.7,5.9,7.7,5.9s0.1-0.9,0.2-1.5c-1.2-3.9-4-9.6-5.3-12.1
					c-0.9-1.8-3.2-5.6-5.7-10c-10.4-18.4-18.4-24.8-20,0c-0.4,6.3-1.1,17.3-1.9,30.2C267.2,283.3,272.9,277.9,278.4,275.9z"/>
			</g>
			<path class="st373" d="M287,255.9c-5.1,6.3-14.4,13.9-24.8,21.4c-7.5,5.4-15.6,10.7-23.2,15.4c-16.4,10.3-30.4,18-30.4,18
				s-2.1-0.1-3.3-1.6c-0.9-1.1-0.7-2.9-0.7-2.9c20.3-17.9,42.2-52.4,67.7-76.2c12.9-12,24.5,0.2,24.5,0.2S308.7,238.3,287,255.9"/>
		</g>
	</g>
</g>
</svg>
